<?xml version="1.0" encoding="UTF-8" standalone="no"?>
<!DOCTYPE svg PUBLIC "-//W3C//DTD SVG 1.0//EN" "http://www.w3.org/TR/2001/REC-SVG-20010904/DTD/svg10.dtd">
<!-- Created with Inkscape (http://www.inkscape.org/) -->

<!-- DOCTYPE and viewBox fix by in[k]firmary (http://inkfirmary.48design.de) -->
<svg
   xmlns:svg="http://www.w3.org/2000/svg"
   xmlns="http://www.w3.org/2000/svg"
   version="1.0"
   width="100%"
   height="100%"
   viewBox="0 0 50 50"
   id="svg2"
   style="display:inline">
  <defs
     id="defs5" />
  <rect
     width="40"
     height="40"
     x="5"
     y="5"
     id="rect3591"
     style="fill:#003399;fill-opacity:1;stroke:none" />
  <path
     d="m 13.76061,29.818227 5.431115,-0.528025 c 0.326866,1.822951 0.990039,3.16187 1.989523,4.016762 0.999466,0.854902 2.347815,1.282351 4.045049,1.282346 1.797785,5e-6 3.15242,-0.380299 4.063907,-1.140911 0.911454,-0.760601 1.36719,-1.650071 1.367208,-2.668412 -1.8e-5,-0.653737 -0.191741,-1.210048 -0.57517,-1.668937 -0.383464,-0.458868 -1.052924,-0.85803 -2.008381,-1.197485 -0.65376,-0.226285 -2.143544,-0.62859 -4.469355,-1.206914 -2.99215,-0.741737 -5.091676,-1.653208 -6.298585,-2.734416 -1.697226,-1.521199 -2.545837,-3.37557 -2.545835,-5.563121 -2e-6,-1.408045 0.399159,-2.724963 1.197486,-3.950759 0.798319,-1.225747 1.948658,-2.159219 3.451021,-2.800419 1.502348,-0.641145 3.315861,-0.961731 5.440543,-0.96176 3.469863,2.9e-5 6.081699,0.760635 7.835515,2.281823 1.753776,1.521239 2.674676,3.551619 2.762703,6.091146 L 29.865375,19.3143 c -0.238886,-1.420618 -0.751196,-2.442094 -1.536931,-3.064431 -0.785766,-0.622293 -1.964392,-0.93345 -3.535882,-0.933473 -1.621802,2.3e-5 -2.891575,0.333182 -3.809323,0.999476 -0.590894,0.427471 -0.886336,0.999497 -0.886328,1.716081 -8e-6,0.653766 0.276576,1.21322 0.829754,1.678366 0.704024,0.590903 2.413817,1.206932 5.129386,1.848087 2.715541,0.64119 4.72392,1.304364 6.025143,1.989523 1.301184,0.68519 2.319517,1.621805 3.055002,2.809848 0.73544,1.188068 1.103171,2.65585 1.103195,4.403352 -2.4e-5,1.584081 -0.440044,3.067579 -1.320062,4.450497 -0.880064,1.382925 -2.124693,2.410687 -3.733892,3.083289 -1.609236,0.672603 -3.614472,1.008904 -6.015714,1.008905 -3.495032,-1e-6 -6.179157,-0.807752 -8.052382,-2.423258 -1.873235,-1.615502 -2.992144,-3.969611 -3.356731,-7.062335 z"
     id="path2818"
     style="font-size:38.6212616px;font-style:normal;font-variant:normal;font-weight:bold;font-stretch:normal;text-align:center;line-height:125%;writing-mode:lr-tb;text-anchor:middle;fill:#ffffff;fill-opacity:1;stroke:none;font-family:Arial;-inkscape-font-specification:Arial Bold" />
</svg>
